<svg width="15" height="9" viewBox="0 0 15 9" fill="none" xmlns="http://www.w3.org/2000/svg">
<path fill-rule="evenodd" clip-rule="evenodd" d="M1 2L7.4 8L7.40002 7.99997L7.40005 8L13.8 2L13.1161 1.27046L7.40002 6.6293L1.68394 1.27046L1 2Z" fill="#333F48"/>
<path d="M7.4 8L7.05803 8.36477L7.42339 8.7073L7.76533 8.34138L7.4 8ZM1 2L0.635231 1.65803L0.293261 2.0228L0.658029 2.36477L1 2ZM7.40002 7.99997L7.76535 7.6586L7.40002 7.26764L7.0347 7.6586L7.40002 7.99997ZM7.40005 8L7.03472 8.34138L7.37666 8.7073L7.74202 8.36477L7.40005 8ZM13.8 2L14.142 2.36477L14.5068 2.0228L14.1648 1.65803L13.8 2ZM13.1161 1.27046L13.4809 0.928492L13.1389 0.563723L12.7741 0.905694L13.1161 1.27046ZM7.40002 6.6293L7.05805 6.99406L7.40002 7.31466L7.742 6.99406L7.40002 6.6293ZM1.68394 1.27046L2.02591 0.905694L1.66114 0.563723L1.31917 0.928492L1.68394 1.27046ZM7.74197 7.63523L1.34197 1.63523L0.658029 2.36477L7.05803 8.36477L7.74197 7.63523ZM7.0347 7.6586L7.03467 7.65863L7.76533 8.34138L7.76535 8.34135L7.0347 7.6586ZM7.0347 8.34135L7.03472 8.34138L7.76538 7.65863L7.76535 7.6586L7.0347 8.34135ZM7.74202 8.36477L14.142 2.36477L13.4581 1.63523L7.05808 7.63523L7.74202 8.36477ZM14.1648 1.65803L13.4809 0.928492L12.7513 1.61243L13.4353 2.34197L14.1648 1.65803ZM12.7741 0.905694L7.05805 6.26453L7.742 6.99406L13.4581 1.63523L12.7741 0.905694ZM1.34197 1.63523L7.05805 6.99406L7.742 6.26453L2.02591 0.905694L1.34197 1.63523ZM1.36477 2.34197L2.04871 1.61243L1.31917 0.928492L0.635231 1.65803L1.36477 2.34197Z" fill="#333F48"/>
</svg>
