<svg width="21" height="21" viewBox="0 0 21 21" fill="none" xmlns="http://www.w3.org/2000/svg">
<path d="M10.5 21C13.2848 21 15.9555 19.8938 17.9246 17.9246C19.8938 15.9555 21 13.2848 21 10.5C21 7.71523 19.8938 5.04451 17.9246 3.07538C15.9555 1.10625 13.2848 0 10.5 0C7.71523 0 5.04451 1.10625 3.07538 3.07538C1.10625 5.04451 0 7.71523 0 10.5C0 13.2848 1.10625 15.9555 3.07538 17.9246C5.04451 19.8938 7.71523 21 10.5 21ZM4.59375 6.5625H16.4062C16.5803 6.5625 16.7472 6.63164 16.8703 6.75471C16.9934 6.87778 17.0625 7.0447 17.0625 7.21875C17.0625 7.3928 16.9934 7.55972 16.8703 7.68279C16.7472 7.80586 16.5803 7.875 16.4062 7.875H4.59375C4.4197 7.875 4.25278 7.80586 4.12971 7.68279C4.00664 7.55972 3.9375 7.3928 3.9375 7.21875C3.9375 7.0447 4.00664 6.87778 4.12971 6.75471C4.25278 6.63164 4.4197 6.5625 4.59375 6.5625ZM6.5625 11.1562C6.5625 10.9822 6.63164 10.8153 6.75471 10.6922C6.87778 10.5691 7.0447 10.5 7.21875 10.5H13.7812C13.9553 10.5 14.1222 10.5691 14.2453 10.6922C14.3684 10.8153 14.4375 10.9822 14.4375 11.1562C14.4375 11.3303 14.3684 11.4972 14.2453 11.6203C14.1222 11.7434 13.9553 11.8125 13.7812 11.8125H7.21875C7.0447 11.8125 6.87778 11.7434 6.75471 11.6203C6.63164 11.4972 6.5625 11.3303 6.5625 11.1562ZM9.1875 15.0938C9.1875 14.9197 9.25664 14.7528 9.37971 14.6297C9.50278 14.5066 9.6697 14.4375 9.84375 14.4375H11.1562C11.3303 14.4375 11.4972 14.5066 11.6203 14.6297C11.7434 14.7528 11.8125 14.9197 11.8125 15.0938C11.8125 15.2678 11.7434 15.4347 11.6203 15.5578C11.4972 15.6809 11.3303 15.75 11.1562 15.75H9.84375C9.6697 15.75 9.50278 15.6809 9.37971 15.5578C9.25664 15.4347 9.1875 15.2678 9.1875 15.0938Z" fill="#4B4E55"/>
</svg>
