<svg width="128" height="22" viewBox="0 0 128 22" fill="none" xmlns="http://www.w3.org/2000/svg">
<g clip-path="url(#clip0_2103_1414)">
<path d="M120.124 0.28537C121.494 0.28537 123.145 0.28537 124.759 1.16689C126.568 2.14354 127.994 4.18563 127.994 6.6336C127.994 8.86594 126.844 10.9397 124.941 12.1003C123.321 13.1087 121.676 13.1087 119.93 13.1087H116.783V21.7209H111.432V0.28537H120.118H120.124ZM116.796 4.24271V9.17669H118.542C120.256 9.17669 122.523 9.17669 122.523 6.66531C122.523 4.15392 120.187 4.24271 118.661 4.24271H116.796Z" fill="url(#paint0_linear_2103_1414)"/>
<path d="M109.906 11.9418C109.906 13.6414 109.875 16.3113 108.072 18.5437C105.893 21.1819 102.407 22 99.1417 22C97.49 22 93.0749 21.9366 90.211 18.1949C89.3695 17.066 88.5907 15.5566 88.5907 12.1003V0.28537H93.9416V10.908C93.9416 11.7895 93.9416 13.0452 94.3121 14.2375C94.9967 16.6284 97.1445 17.6938 99.2296 17.6938C102.313 17.6938 103.745 15.6518 104.179 14.5483C104.549 13.6033 104.549 12.7852 104.549 10.9017V0.28537H109.906V11.9418Z" fill="url(#paint1_linear_2103_1414)"/>
<path d="M87.3912 21.7209H71.7343V0.28537H87.1714V4.27442H77.0851V8.61227H86.7003V12.633H77.0851V17.789H87.3912V21.7209Z" fill="white"/>
<path d="M70.0574 21.7209H64.7065V8.61227L59.0102 15.5249H58.2315L52.5352 8.61227V21.7209H47.1843V0.28537H51.882L58.6083 8.42835L65.4225 0.28537H70.0574V21.7209Z" fill="white"/>
<path d="M45.9723 21.7209H40.276L38.5301 17.4782H29.0342L27.4452 21.7209H21.8431L30.4095 0.28537H36.5392L45.9723 21.7209ZM33.5497 5.43498L30.4347 13.7302H36.9725L33.5497 5.43498Z" fill="white"/>
<path d="M21.1648 6.41165C18.6778 5.25108 15.9961 4.46469 13.2578 4.46469C10.7959 4.46469 9.33261 5.09253 8.40312 5.68867C6.87699 6.63361 5.50788 8.48544 5.50788 11.1871C5.50788 15.2395 8.86787 17.5353 12.5105 17.5353C13.8168 17.5353 15.0917 17.2499 16.3101 16.7806V14.2692H13.2578V10.2802H21.6924V19.1144C19.5131 20.9663 16.0589 22.0063 12.6047 22.0063C5.79049 22 0 17.9158 0 11.0032C0 4.09052 5.32575 0 12.8245 0C17.0261 0 19.8899 1.22398 21.1648 1.76304V6.41165Z" fill="white"/>
</g>
<defs>
<linearGradient id="paint0_linear_2103_1414" x1="111.439" y1="11.0032" x2="128" y2="11.0032" gradientUnits="userSpaceOnUse">
<stop stop-color="#F7941D"/>
<stop offset="1" stop-color="#D6582A"/>
</linearGradient>
<linearGradient id="paint1_linear_2103_1414" x1="88.5907" y1="11.1427" x2="109.906" y2="11.1427" gradientUnits="userSpaceOnUse">
<stop stop-color="#F7941D"/>
<stop offset="1" stop-color="#D6582A"/>
</linearGradient>
<clipPath id="clip0_2103_1414">
<rect width="128" height="22" fill="white"/>
</clipPath>
</defs>
</svg>
