<svg width="42" height="42" viewBox="0 0 42 42" fill="none" xmlns="http://www.w3.org/2000/svg">
<g clip-path="url(#clip0_2103_1421)">
<path d="M25.7217 10.7666C25.9312 10.8567 26.137 10.9543 26.341 11.0575C28.0287 11.9136 29.4713 13.2052 30.521 14.786C30.7867 15.1858 31.028 15.6045 31.2413 16.04H34.5344C34.4652 15.8485 34.3904 15.6589 34.3118 15.4712C33.2527 12.9274 31.4902 10.7684 29.2673 9.24215C28.3636 8.62075 27.3813 8.10448 26.3429 7.71024V3.81474C27.0183 4.01186 27.6769 4.25029 28.3168 4.52438C31.4677 5.87982 34.1527 8.14578 36.0463 10.9975C36.993 12.4224 37.7433 13.9937 38.256 15.6702C38.2934 15.7922 38.329 15.9142 38.3645 16.0381H41.4929C41.2291 14.9324 40.8811 13.8623 40.4526 12.8335C38.8884 9.07507 36.2801 5.87982 32.9945 3.62325C31.3517 2.49497 29.5387 1.59947 27.604 0.98746C27.1905 0.856046 26.7695 0.73965 26.3447 0.634519C25.4073 0.403605 24.4456 0.240276 23.4651 0.144531V10.0832C24.251 10.2296 25.0088 10.4587 25.7254 10.7666H25.7217Z" fill="white"/>
<path d="M41.9944 20.5062H23.7814V23.5813H38.7911C38.4319 26.0932 37.5394 28.5356 36.2091 30.6814C35.8068 31.3329 35.3596 31.9562 34.8712 32.5419C34.1247 33.4355 33.292 34.254 32.3883 34.9824C32.0347 35.2678 31.6717 35.5381 31.2994 35.7953C29.8979 36.7584 28.3524 37.5206 26.704 38.0425C26.5842 38.0801 26.4645 38.1157 26.3429 38.1514V34.2578C26.5319 34.1864 26.7171 34.1114 26.9023 34.0325C29.404 32.9568 31.5276 31.162 33.0282 28.9036C33.6401 27.9837 34.1471 26.9868 34.5344 25.928H31.2414C30.3994 27.6439 29.1289 29.1101 27.574 30.1783C27.1811 30.4487 26.7695 30.6927 26.341 30.9105C25.8227 31.1733 25.282 31.3967 24.7207 31.5732C24.3109 31.7027 23.8899 31.806 23.4614 31.8867V41.8216C24.4419 41.7259 25.4036 41.5625 26.341 41.3316C27.4281 41.0632 28.4815 40.7084 29.4938 40.2728C33.191 38.6827 36.3307 36.03 38.5516 32.6883C39.9811 30.5388 41.014 28.1264 41.5528 25.5882C41.8709 24.0844 42.0019 22.5169 42.0019 20.9812C42.0019 20.8216 42 20.662 41.9963 20.5025L41.9944 20.5062Z" fill="white"/>
<path d="M14.0929 5.32415C14.5046 5.91176 14.817 6.53317 15.0453 7.17334C16.5534 6.99124 18.1719 6.87672 19.9026 6.84105V0C16.7106 0.118273 13.7019 0.978098 11.0356 2.41239C12.3173 3.2816 13.3407 4.25594 14.091 5.32415H14.0929Z" fill="url(#paint0_linear_2103_1421)"/>
<path d="M14.0667 17.1289C13.178 19.2503 11.8158 21.0262 10.4967 22.7459C9.4901 24.0563 8.53959 25.2953 7.81736 26.6433C6.24753 29.5738 5.48787 32.5456 5.57768 35.3448C9.18886 39.2722 14.2613 41.7916 19.9045 42.0018V10.025C18.5723 10.055 17.1091 10.1433 15.5748 10.3235C15.5992 12.918 14.7647 15.4655 14.0686 17.1289H14.0667Z" fill="url(#paint1_linear_2103_1421)"/>
<path d="M7.98204 20.8028C9.23192 19.1752 10.4126 17.6358 11.1404 15.8973C12.0123 13.8135 12.3435 12.1445 12.3884 10.8341C9.27308 11.4668 6.05671 12.5482 3.21642 14.3467C2.07132 15.0713 1.17507 15.796 0.492133 16.4361C0.170308 17.9061 -0.00183105 19.4343 -0.00183105 21.0037C-0.00183105 24.7997 0.995451 28.3629 2.73368 31.4399C3.13783 29.3429 3.9031 27.2234 5.02013 25.1376C5.86586 23.5607 6.93985 22.1602 7.98017 20.8047L7.98204 20.8028Z" fill="url(#paint2_linear_2103_1421)"/>
<path d="M11.4977 7.15829C10.7792 6.13514 9.60793 5.17018 8.08862 4.34039C5.7741 6.15203 3.84502 8.4499 2.45294 11.0838C4.78617 9.74715 7.85286 8.48745 11.8102 7.68958C11.7017 7.46993 11.5931 7.29346 11.4977 7.15829Z" fill="url(#paint3_linear_2103_1421)"/>
</g>
<defs>
<linearGradient id="paint0_linear_2103_1421" x1="11.0375" y1="3.58573" x2="19.9045" y2="3.58573" gradientUnits="userSpaceOnUse">
<stop stop-color="#F7941D"/>
<stop offset="1" stop-color="#D6582A"/>
</linearGradient>
<linearGradient id="paint1_linear_2103_1421" x1="5.5702" y1="26.0125" x2="0.18712" y2="26.0125" gradientUnits="userSpaceOnUse">
<stop stop-color="#F7941D"/>
<stop offset="1" stop-color="#D6582A"/>
</linearGradient>
<linearGradient id="paint2_linear_2103_1421" x1="4.00195e-05" y1="21.1351" x2="12.3884" y2="21.1351" gradientUnits="userSpaceOnUse">
<stop stop-color="#F7941D"/>
<stop offset="1" stop-color="#D6582A"/>
</linearGradient>
<linearGradient id="paint3_linear_2103_1421" x1="2.45294" y1="7.71211" x2="11.8102" y2="7.71211" gradientUnits="userSpaceOnUse">
<stop stop-color="#F7941D"/>
<stop offset="1" stop-color="#D6582A"/>
</linearGradient>
<clipPath id="clip0_2103_1421">
<rect width="42" height="42" fill="white"/>
</clipPath>
</defs>
</svg>
