<svg width="19" height="18" viewBox="0 0 19 18" fill="none" xmlns="http://www.w3.org/2000/svg">
<path d="M9.5 17.5302C7.07222 17.5302 4.95654 16.8134 3.15294 15.38C1.34935 13.9465 0.315963 12.1572 0.0527777 10.0121H2.21667C2.46296 11.641 3.2768 12.988 4.65817 14.0531C6.03954 15.1181 7.65348 15.6506 9.5 15.6506C11.5583 15.6506 13.3046 15.0122 14.7387 13.7354C16.1729 12.4586 16.8896 10.9042 16.8889 9.07233C16.8889 7.2398 16.1718 5.68513 14.7377 4.40831C13.3035 3.13149 11.5576 2.49339 9.5 2.49402C8.28611 2.49402 7.15139 2.74462 6.09583 3.24583C5.04028 3.74703 4.15185 4.43619 3.43056 5.3133H6.33333V7.19281H0V1.55426H2.11111V3.76269C3.00833 2.76028 4.10365 1.98498 5.39706 1.43679C6.69046 0.888598 8.05811 0.614502 9.5 0.614502C10.8194 0.614502 12.0555 0.837851 13.2082 1.28455C14.3608 1.73125 15.3636 2.33395 16.2165 3.09265C17.0694 3.8526 17.7467 4.74537 18.2484 5.77096C18.7502 6.79655 19.0007 7.89701 19 9.07233C19 10.247 18.7491 11.3475 18.2474 12.3737C17.7456 13.3999 17.0687 14.2927 16.2165 15.052C15.3629 15.8113 14.3601 16.4144 13.2082 16.8611C12.0562 17.3078 10.8201 17.5308 9.5 17.5302ZM12.4556 13.0193L8.44444 9.44824V4.37354H10.5556V8.69643L13.9333 11.7037L12.4556 13.0193Z" fill="black"/>
</svg>
