<svg width="24" height="12" viewBox="0 0 24 12" fill="none" xmlns="http://www.w3.org/2000/svg">
<path d="M2.54967 5.99999C2.54967 4.00499 4.17134 2.38332 6.16634 2.38332H10.833V0.166656H6.16634C2.94634 0.166656 0.333008 2.77999 0.333008 5.99999C0.333008 9.21999 2.94634 11.8333 6.16634 11.8333H10.833V9.61666H6.16634C4.17134 9.61666 2.54967 7.99499 2.54967 5.99999ZM7.33301 7.16666H16.6663V4.83332H7.33301V7.16666ZM17.833 0.166656H13.1663V2.38332H17.833C19.828 2.38332 21.4497 4.00499 21.4497 5.99999C21.4497 7.99499 19.828 9.61666 17.833 9.61666H13.1663V11.8333H17.833C21.053 11.8333 23.6663 9.21999 23.6663 5.99999C23.6663 2.77999 21.053 0.166656 17.833 0.166656Z" fill="black"/>
</svg>
