<svg width="11" height="15" viewBox="0 0 11 15" fill="none" xmlns="http://www.w3.org/2000/svg">
<path d="M4.76669 14.625C3.28825 12.7441 0 8.18555 0 5.625C0 2.51836 2.43461 0 5.43794 0C8.44013 0 10.8759 2.51836 10.8759 5.625C10.8759 8.18555 7.56213 12.7441 6.10918 14.625C5.76082 15.0732 5.11506 15.0732 4.76669 14.625V14.625ZM5.43794 7.5C6.43773 7.5 7.25059 6.65918 7.25059 5.625C7.25059 4.59082 6.43773 3.75 5.43794 3.75C4.43815 3.75 3.62529 4.59082 3.62529 5.625C3.62529 6.65918 4.43815 7.5 5.43794 7.5Z" fill="white"/>
</svg>
