<svg width="38" height="38" viewBox="0 0 38 38" fill="none" xmlns="http://www.w3.org/2000/svg">
<path d="M21.2325 19L28.0408 12.2075C28.339 11.9094 28.5065 11.505 28.5065 11.0833C28.5065 10.6617 28.339 10.2573 28.0408 9.95918C27.7427 9.66103 27.3383 9.49353 26.9167 9.49353C26.495 9.49353 26.0906 9.66103 25.7925 9.95918L19 16.7675L12.2075 9.95918C11.9094 9.66103 11.505 9.49353 11.0833 9.49353C10.6617 9.49353 10.2573 9.66103 9.95917 9.95918C9.66102 10.2573 9.49352 10.6617 9.49352 11.0833C9.49352 11.505 9.66102 11.9094 9.95917 12.2075L16.7675 19L9.95917 25.7925C9.81076 25.9397 9.69297 26.1148 9.61259 26.3078C9.5322 26.5007 9.49082 26.7077 9.49082 26.9167C9.49082 27.1257 9.5322 27.3326 9.61259 27.5256C9.69297 27.7185 9.81076 27.8936 9.95917 28.0408C10.1064 28.1892 10.2815 28.307 10.4744 28.3874C10.6674 28.4678 10.8743 28.5092 11.0833 28.5092C11.2924 28.5092 11.4993 28.4678 11.6922 28.3874C11.8852 28.307 12.0603 28.1892 12.2075 28.0408L19 21.2325L25.7925 28.0408C25.9397 28.1892 26.1148 28.307 26.3078 28.3874C26.5007 28.4678 26.7076 28.5092 26.9167 28.5092C27.1257 28.5092 27.3326 28.4678 27.5256 28.3874C27.7185 28.307 27.8936 28.1892 28.0408 28.0408C28.1892 27.8936 28.307 27.7185 28.3874 27.5256C28.4678 27.3326 28.5092 27.1257 28.5092 26.9167C28.5092 26.7077 28.4678 26.5007 28.3874 26.3078C28.307 26.1148 28.1892 25.9397 28.0408 25.7925L21.2325 19Z" fill="white"/>
</svg>
