<svg width="22" height="22" viewBox="0 0 22 22" fill="none" xmlns="http://www.w3.org/2000/svg">
<path d="M17.2767 9.58833L14.71 7.02167C14.3833 6.695 14.29 6.24 14.4183 5.83167C14.85 4.525 15.0833 3.125 15.0833 1.66667C15.0833 1.025 15.6083 0.5 16.25 0.5H20.3333C20.975 0.5 21.5 1.025 21.5 1.66667C21.5 12.6217 12.6217 21.5 1.66667 21.5C1.025 21.5 0.5 20.975 0.5 20.3333V16.2617C0.5 15.62 1.025 15.095 1.66667 15.095C3.11333 15.095 4.525 14.8617 5.83167 14.43C6.24 14.29 6.70667 14.395 7.02167 14.71L9.58833 17.2767C12.89 15.585 15.5967 12.89 17.2767 9.58833Z" fill="black"/>
</svg>
