<svg width="47" height="45" viewBox="0 0 47 45" fill="none" xmlns="http://www.w3.org/2000/svg">
<path d="M23.5 0C10.7974 0 0.5 10.0736 0.5 22.5C0.5 34.9264 10.7974 45 23.5 45C36.2026 45 46.5 34.9264 46.5 22.5C46.5 10.0736 36.2026 0 23.5 0ZM21.7396 10.5908L22.7279 15.0431C19.8322 15.6701 17.1694 16.4856 17.385 19.6491H20.7878V31.4979H10.5372V20.4236C10.5409 11.6227 17.1459 10.9066 21.7396 10.5908ZM35.4717 10.5908L36.4628 15.0431C33.567 15.6701 30.9042 16.4856 31.1199 19.6491H34.5227V31.4979H24.2721V20.4236C24.2757 11.6227 30.878 10.9066 35.4717 10.5908Z" fill="#231F20"/>
</svg>
