<svg width="9" height="12" viewBox="0 0 9 12" fill="none" xmlns="http://www.w3.org/2000/svg">
<path d="M2.063 0.777761C2.50476 0.777234 2.93322 0.928843 3.27633 1.20709L8.03633 5.13643C8.22299 5.28503 8.37374 5.47382 8.47735 5.68873C8.58096 5.90365 8.63477 6.13917 8.63477 6.37776C8.63477 6.61635 8.58096 6.85187 8.47735 7.06679C8.37374 7.28171 8.22299 7.47049 8.03633 7.61909L3.27633 11.5484C2.98977 11.778 2.64447 11.9225 2.27978 11.9654C1.9151 12.0083 1.54569 11.9479 1.21366 11.7911C0.925102 11.6639 0.67925 11.4563 0.505472 11.1932C0.331695 10.93 0.237335 10.6224 0.233665 10.3071L0.233665 2.44843C0.237336 2.1331 0.331695 1.82549 0.505473 1.56234C0.679251 1.29919 0.925103 1.09162 1.21367 0.964428C1.48047 0.843097 1.7699 0.779486 2.063 0.777761Z" fill="#231F20"/>
</svg>
