<svg width="5" height="6" viewBox="0 0 5 6" fill="none" xmlns="http://www.w3.org/2000/svg">
<path d="M0.940791 -2.67965e-06C1.16798 -0.00027398 1.38833 0.0776965 1.56479 0.220797L4.01279 2.2416C4.10879 2.31802 4.18631 2.41511 4.2396 2.52564C4.29288 2.63617 4.32056 2.75729 4.32056 2.88C4.32056 3.0027 4.29288 3.12383 4.2396 3.23435C4.18631 3.34488 4.10879 3.44197 4.01279 3.5184L1.56479 5.5392C1.41741 5.65728 1.23983 5.73159 1.05228 5.75365C0.864726 5.77572 0.674746 5.74465 0.50399 5.664C0.355587 5.59858 0.229148 5.49184 0.139777 5.3565C0.0504051 5.22117 0.00187785 5.06297 -9.93842e-06 4.9008L-9.58509e-06 0.859198C0.00187823 0.697028 0.0504055 0.538828 0.139777 0.403494C0.229149 0.26816 0.355587 0.161412 0.503991 0.095998C0.641207 0.0335986 0.790055 0.000884701 0.940791 -2.67965e-06Z" fill="#F0F2F5"/>
</svg>
