<svg width="24" height="24" viewBox="0 0 24 24" fill="none" xmlns="http://www.w3.org/2000/svg">
<path d="M11.9997 0.333328C5.55967 0.333328 0.333008 5.55999 0.333008 12C0.333008 18.44 5.55967 23.6667 11.9997 23.6667H17.833V21.3333H11.9997C6.93634 21.3333 2.66634 17.0633 2.66634 12C2.66634 6.93666 6.93634 2.66666 11.9997 2.66666C17.063 2.66666 21.333 6.93666 21.333 12V13.6683C21.333 14.59 20.5047 15.5 19.583 15.5C18.6613 15.5 17.833 14.59 17.833 13.6683V12C17.833 8.77999 15.2197 6.16666 11.9997 6.16666C8.77967 6.16666 6.16634 8.77999 6.16634 12C6.16634 15.22 8.77967 17.8333 11.9997 17.8333C13.6097 17.8333 15.0797 17.18 16.1297 16.1183C16.888 17.1567 18.1947 17.8333 19.583 17.8333C21.8813 17.8333 23.6663 15.9667 23.6663 13.6683V12C23.6663 5.55999 18.4397 0.333328 11.9997 0.333328ZM11.9997 15.5C10.063 15.5 8.49967 13.9367 8.49967 12C8.49967 10.0633 10.063 8.49999 11.9997 8.49999C13.9363 8.49999 15.4997 10.0633 15.4997 12C15.4997 13.9367 13.9363 15.5 11.9997 15.5Z" fill="black"/>
</svg>
