<svg width="42" height="40" viewBox="0 0 42 40" fill="none" xmlns="http://www.w3.org/2000/svg">
<path d="M40.3407 14.2412L27.9433 12.4394L22.4013 1.20409C22.2499 0.896472 22.0009 0.647448 21.6933 0.496081C20.9218 0.115222 19.9843 0.432605 19.5986 1.20409L14.0566 12.4394L1.6591 14.2412C1.31731 14.29 1.00481 14.4512 0.765549 14.6953C0.476299 14.9926 0.31691 15.3926 0.322403 15.8073C0.327896 16.2221 0.497823 16.6177 0.794845 16.9072L9.76457 25.6523L7.64543 38.001C7.59574 38.2882 7.62752 38.5837 7.73719 38.8538C7.84685 39.1239 8.03001 39.3579 8.26588 39.5292C8.50176 39.7005 8.78091 39.8023 9.0717 39.823C9.36248 39.8437 9.65326 39.7826 9.91106 39.6465L20.9999 33.8164L32.0888 39.6465C32.3915 39.8076 32.7431 39.8613 33.08 39.8027C33.9296 39.6562 34.5009 38.8506 34.3544 38.001L32.2353 25.6523L41.205 16.9072C41.4491 16.668 41.6103 16.3555 41.6591 16.0137C41.7909 15.1592 41.1952 14.3682 40.3407 14.2412Z" fill="#F7941D"/>
</svg>
