<svg width="413" height="429" viewBox="0 0 413 429" fill="none" xmlns="http://www.w3.org/2000/svg">
<path opacity="0.15" fill-rule="evenodd" clip-rule="evenodd" d="M118.647 89.4096C124.978 94.7196 130.306 100.701 134.754 107.142C150.988 100.621 168.652 94.5227 187.8 88.9668L167.408 12.8615C132.249 23.6924 101.341 42.2263 75.9551 66.1304C92.8046 71.9796 107.095 79.7681 118.626 89.4152L118.647 89.4096ZM272.002 116.683C269.426 116.142 266.845 115.669 264.245 115.291L264.287 115.28C255.397 113.991 246.284 113.702 237.105 114.416L207.479 3.85001C218.672 1.99257 229.857 0.94276 240.974 0.717324C246.013 0.620811 251.043 0.660768 256.035 0.890104C279.382 1.93156 302.222 6.48921 323.861 14.1441C367.139 29.454 405.68 57.2255 434.286 94.3747C442.119 104.543 449.18 115.41 455.411 126.925L420.608 136.25C419.843 134.978 419.084 133.726 418.304 132.48C407.603 115.358 394.572 100.114 379.792 87.084C350.227 61.0039 313.602 43.7992 274.509 38.1126C266.573 36.9709 258.535 36.2817 250.433 36.1023L262.045 79.4388C274.773 80.7292 287.24 83.5444 299.146 87.7635C328.424 98.1171 354.468 116.881 373.832 142.023C375.266 143.878 376.664 145.764 378.005 147.688L341.37 157.504C337.699 153.295 333.766 149.357 329.618 145.7C313.228 131.244 293.33 121.175 272.002 116.683ZM271.688 229.427L474.304 175.136L474.314 175.089C474.831 176.853 475.328 178.623 475.804 180.398C480.381 197.482 483.597 215.311 484.541 232.989C486.112 262.832 481.813 292.748 472.318 320.922C457.571 364.718 430.55 403.588 394.159 432.298C384.196 440.161 373.535 447.249 362.242 453.476C352.501 458.839 342.289 463.523 331.667 467.51L302.053 356.986C306.579 354.811 310.954 352.408 315.127 349.745C320.845 346.109 326.195 342.011 331.177 337.543C335.295 333.843 339.147 329.9 342.712 325.722C356.825 309.203 366.588 289.105 370.841 267.506L407.475 257.69C406.323 270.624 403.654 283.225 399.589 295.283C389.627 324.88 371.352 351.177 346.728 370.601C344.903 372.031 343.066 373.418 341.176 374.775L352.782 418.091C354.029 417.331 355.255 416.578 356.475 415.803C373.258 405.083 388.179 391.997 400.899 377.105C404.275 373.134 407.507 369.045 410.591 364.816C418.473 354.019 425.296 342.431 430.937 330.264C434.624 322.292 437.741 314.025 440.275 305.579C448.678 277.742 451.326 247.91 447.835 218.895L280.855 263.637L271.688 229.427ZM130.568 293.943C140.117 270.88 149.977 247.062 153.54 220.813L153.561 220.807C156.346 200.228 158.036 169.4 150.031 140.609C166.563 134.031 182.577 128.687 197.308 124.382L292.627 480.118C229.222 494.6 165.281 481.693 113.401 448.766C104.058 417.894 103.65 382.568 112.378 345.287C116.395 328.139 123.276 311.521 130.568 293.943ZM96.8044 279.823C105.857 257.99 114.403 237.345 117.318 215.835C120.806 190.054 119.515 170.5 116.109 155.788C83.3373 172.113 50.7792 193.73 24.5426 222.205C13.9638 233.68 6.15336 244.413 0.464051 253.571C1.2656 270.883 3.90585 288.397 8.58423 305.857C19.8996 348.086 41.6157 384.753 70.1252 413.803C68.3704 389.269 70.5658 363.409 76.7752 336.876C81.483 316.811 89.2563 298.029 96.7892 279.849L96.8044 279.823ZM48.9227 96.3637C68.2982 101.066 84.205 108.309 95.248 117.55C96.7125 118.769 98.4458 120.409 100.308 122.529C58.6618 143.202 28.3005 166.357 6.32829 188.182C13.9635 154.731 28.5744 123.417 48.9227 96.3637Z" fill="#F0F2F5"/>
</svg>
