<svg width="18" height="18" viewBox="0 0 18 18" fill="none" xmlns="http://www.w3.org/2000/svg">
<path d="M12.3192 17.4C13.0131 17.3998 13.6856 17.1591 14.2221 16.7189C14.7585 16.2787 15.1259 15.6661 15.2616 14.9856C15.8493 14.9211 16.3925 14.642 16.7871 14.2018C17.1817 13.7616 17.4 13.1912 17.4 12.6V2.99998C17.4 2.36346 17.1471 1.75301 16.697 1.30292C16.2469 0.852832 15.6365 0.599976 15 0.599976H5.39998C4.80216 0.600075 4.22591 0.823278 3.78401 1.22589C3.34211 1.62851 3.06637 2.18156 3.01078 2.77678C2.33076 2.91298 1.71894 3.28058 1.27941 3.81704C0.839879 4.35349 0.599784 5.02565 0.599976 5.71917V13.2C0.599976 14.3139 1.04247 15.3822 1.83013 16.1698C2.61778 16.9575 3.68607 17.4 4.79998 17.4H12.3192ZM1.79998 5.71917C1.79953 5.34658 1.91472 4.98303 2.12966 4.67868C2.3446 4.37432 2.64869 4.14417 2.99998 4.01998V12.6C2.99998 13.2365 3.25283 13.8469 3.70292 14.297C4.15301 14.7471 4.76346 15 5.39998 15H14.016C13.8919 15.3509 13.6621 15.6547 13.3583 15.8696C13.0544 16.0845 12.6914 16.1999 12.3192 16.2H4.79998C4.00433 16.2 3.24126 15.8839 2.67866 15.3213C2.11605 14.7587 1.79998 13.9956 1.79998 13.2V5.71917ZM8.41917 4.19998H13.2C13.3591 4.19998 13.5117 4.26319 13.6242 4.37571C13.7368 4.48823 13.8 4.64085 13.8 4.79998V9.58078C13.8 9.73991 13.7368 9.89252 13.6242 10.005C13.5117 10.1176 13.3591 10.1808 13.2 10.1808C13.0408 10.1808 12.8882 10.1176 12.7757 10.005C12.6632 9.89252 12.6 9.73991 12.6 9.58078V6.24837L7.62478 11.2248C7.51211 11.3374 7.35931 11.4007 7.19998 11.4007C7.04064 11.4007 6.88784 11.3374 6.77518 11.2248C6.66251 11.1121 6.59922 10.9593 6.59922 10.8C6.59922 10.6406 6.66251 10.4878 6.77518 10.3752L11.7516 5.39998H8.41917C8.26005 5.39998 8.10743 5.33676 7.99491 5.22424C7.88239 5.11172 7.81917 4.95911 7.81917 4.79998C7.81917 4.64085 7.88239 4.48823 7.99491 4.37571C8.10743 4.26319 8.26005 4.19998 8.41917 4.19998Z" fill="white"/>
</svg>
